<?xml version="1.0" encoding="UTF-8"?>
<svg id="Layer_1" data-name="Layer 1" xmlns="http://www.w3.org/2000/svg" viewBox="0 0 96.43 96.43">
  <defs>
    <style>
      .cls-1, .cls-2 {
        stroke: #49a5d4;
        stroke-width: 1.83px;
      }

      .cls-1, .cls-2, .cls-3 {
        stroke-miterlimit: 10;
      }

      .cls-1, .cls-3 {
        fill: #fff;
      }

      .cls-4 {
        fill: #49a5d4;
      }

      .cls-2 {
        fill: none;
      }

      .cls-3 {
        stroke: gray;
        stroke-width: .25px;
      }
    </style>
  </defs>
  <rect class="cls-3" x=".43" y=".43" width="96" height="96"/>
  <g>
    <g>
      <circle class="cls-2" cx="47.14" cy="48.23" r="17.81"/>
      <path class="cls-2" d="m59.62,12.43s-4.69.06-6.81,3.41c-2.12,3.35-4.72,15.37-4.72,15.37l-.61,4.42"/>
      <path class="cls-2" d="m53.08,34.91c0,.79-2.22,1.44-4.95,1.44s-4.95-.64-4.95-1.44,2.22-.48,4.95-.48,4.95-.31,4.95.48Z"/>
      <path class="cls-2" d="m33.29,16.56h5.94c5.46,0,9.9,4.43,9.9,9.9h-5.94c-5.46,0-9.9-4.43-9.9-9.9h0Z"/>
    </g>
    <g>
      <path class="cls-1" d="m11.55,61.11h77.88v1.63c0,6.62-5.38,12-12,12H23.55c-6.62,0-12-5.38-12-12v-1.63h0Z"/>
      <rect class="cls-1" x="24.62" y="74.74" width="52.3" height="3.41"/>
    </g>
    <g>
      <path class="cls-1" d="m59.4,58.72c-.91-.06-3.39-2.33-2.31-4.14l6.55-11,6.55-11c1.08-1.81,3.71-1.77,4.74.06l6.25,11.18,6.25,11.18c1.03,1.84-1.24,3.67-2.42,4.07l-2.99.84c-6.32,1.77-13.02,1.71-19.3-.18l-3.32-1Z"/>
      <path class="cls-2" d="m57,53.38s6.02,3.36,15.15,3.33c9.13-.03,15.03-3.33,15.03-3.33"/>
    </g>
    <g>
      <polygon class="cls-4" points="76.62 48.62 76.9 48.07 78.01 46.14 79.13 48.07 79.41 48.82 77.92 50.11 76.62 48.62"/>
      <polygon class="cls-4" points="66.72 48.62 67 48.07 68.12 46.14 69.23 48.07 69.51 48.82 68.02 50.11 66.72 48.62"/>
      <polygon class="cls-4" points="70.68 40.7 70.96 40.16 72.08 38.23 73.19 40.16 73.47 40.9 71.98 42.2 70.68 40.7"/>
    </g>
    <g>
      <circle class="cls-2" cx="15.15" cy="50.19" r="3.78"/>
      <circle class="cls-2" cx="18.73" cy="56.36" r="3.78"/>
      <circle class="cls-1" cx="22.31" cy="62.54" r="3.78"/>
      <circle class="cls-1" cx="28.56" cy="44.16" r="3.78"/>
      <circle class="cls-1" cx="32.14" cy="50.34" r="3.78"/>
      <circle class="cls-1" cx="35.71" cy="56.51" r="3.78"/>
      <circle class="cls-2" cx="23.12" cy="49.7" r="3.78"/>
      <circle class="cls-2" cx="26.7" cy="55.87" r="3.78"/>
      <circle class="cls-1" cx="30.27" cy="62.05" r="3.78"/>
      <path class="cls-2" d="m11.56,38.21c.78-1.14,3.54-.6,6.17,1.2,2.63,1.8,5.79,4.3,5.01,5.44-.78,1.14-5.2.47-7.82-1.33-2.63-1.8-4.13-4.18-3.35-5.31Z"/>
      <path class="cls-2" d="m22.7,31.9c-2.05,2.52,0,5.05,0,5.05,0,0,4.1,5.05,8.19,0,2.05-2.52,0-2.52-2.05-2.52,0,0-2.7.69-4.1,2.75-1.18,1.73-2.36,3.81-2.04,4.82.6,1.89,2.06,2.89,2.06,2.89"/>
    </g>
  </g>
</svg>