<?xml version="1.0" encoding="UTF-8"?>
<svg id="Layer_1" data-name="Layer 1" xmlns="http://www.w3.org/2000/svg" viewBox="0 0 96.43 96.43">
  <defs>
    <style>
      .cls-1 {
        stroke: #f7931e;
        stroke-width: 1.6px;
      }

      .cls-1, .cls-2 {
        fill: #fff;
        stroke-miterlimit: 10;
      }

      .cls-2 {
        stroke: gray;
        stroke-width: .25px;
      }
    </style>
  </defs>
  <rect class="cls-2" y="-.57" width="96" height="96"/>
  <g>
    <path class="cls-1" d="m46.47,48.22h3.97c.43,0,.77.35.77.77v4.39c0,5.07-4.12,9.19-9.19,9.19h-4.39c-.43,0-.77-.35-.77-.77v-3.97c0-5.31,4.31-9.61,9.61-9.61Z" transform="translate(88.07 110.79) rotate(-180)"/>
    <path class="cls-1" d="m46.47,35.46h3.97c.43,0,.77.35.77.77v4.39c0,5.07-4.12,9.19-9.19,9.19h-4.39c-.43,0-.77-.35-.77-.77v-3.97c0-5.31,4.31-9.61,9.61-9.61Z" transform="translate(88.07 85.27) rotate(-180)"/>
    <path class="cls-1" d="m46.47,22.69h3.97c.43,0,.77.35.77.77v4.39c0,5.07-4.12,9.19-9.19,9.19h-4.39c-.43,0-.77-.35-.77-.77v-3.97c0-5.31,4.31-9.61,9.61-9.61Z" transform="translate(88.07 59.74) rotate(-180)"/>
    <path class="cls-1" d="m46.47,9.93h3.97c.43,0,.77.35.77.77v4.39c0,5.07-4.12,9.19-9.19,9.19h-4.39c-.43,0-.77-.35-.77-.77v-3.97c0-5.31,4.31-9.61,9.61-9.61Z" transform="translate(88.07 34.22) rotate(-180)"/>
    <path class="cls-1" d="m23.27,48.22h4.39c5.07,0,9.19,4.12,9.19,9.19v4.39c0,.43-.35.77-.77.77h-3.97c-5.31,0-9.61-4.31-9.61-9.61v-3.97c0-.43.35-.77.77-.77Z"/>
    <path class="cls-1" d="m23.27,35.46h4.39c5.07,0,9.19,4.12,9.19,9.19v4.39c0,.43-.35.77-.77.77h-3.97c-5.31,0-9.61-4.31-9.61-9.61v-3.97c0-.43.35-.77.77-.77Z"/>
    <path class="cls-1" d="m23.27,22.69h4.39c5.07,0,9.19,4.12,9.19,9.19v4.39c0,.43-.35.77-.77.77h-3.97c-5.31,0-9.61-4.31-9.61-9.61v-3.97c0-.43.35-.77.77-.77Z"/>
    <path class="cls-1" d="m23.27,9.93h4.39c5.07,0,9.19,4.12,9.19,9.19v4.39c0,.43-.35.77-.77.77h-3.97c-5.31,0-9.61-4.31-9.61-9.61v-3.97c0-.43.35-.77.77-.77Z"/>
    <path class="cls-1" d="m79.97,54.6h3.97c.43,0,.77.35.77.77v4.39c0,5.07-4.12,9.19-9.19,9.19h-4.39c-.43,0-.77-.35-.77-.77v-3.97c0-5.31,4.31-9.61,9.61-9.61Z" transform="translate(155.07 123.55) rotate(-180)"/>
    <path class="cls-1" d="m79.97,41.84h3.97c.43,0,.77.35.77.77v4.39c0,5.07-4.12,9.19-9.19,9.19h-4.39c-.43,0-.77-.35-.77-.77v-3.97c0-5.31,4.31-9.61,9.61-9.61Z" transform="translate(155.07 98.03) rotate(-180)"/>
    <path class="cls-1" d="m79.97,29.07h3.97c.43,0,.77.35.77.77v4.39c0,5.07-4.12,9.19-9.19,9.19h-4.39c-.43,0-.77-.35-.77-.77v-3.97c0-5.31,4.31-9.61,9.61-9.61Z" transform="translate(155.07 72.51) rotate(-180)"/>
    <path class="cls-1" d="m56.77,54.6h4.39c5.07,0,9.19,4.12,9.19,9.19v4.39c0,.43-.35.77-.77.77h-3.97c-5.31,0-9.61-4.31-9.61-9.61v-3.97c0-.43.35-.77.77-.77Z"/>
    <path class="cls-1" d="m56.77,41.84h4.39c5.07,0,9.19,4.12,9.19,9.19v4.39c0,.43-.35.77-.77.77h-3.97c-5.31,0-9.61-4.31-9.61-9.61v-3.97c0-.43.35-.77.77-.77Z"/>
    <path class="cls-1" d="m56.77,29.07h4.39c5.07,0,9.19,4.12,9.19,9.19v4.39c0,.43-.35.77-.77.77h-3.97c-5.31,0-9.61-4.31-9.61-9.61v-3.97c0-.43.35-.77.77-.77Z"/>
    <line class="cls-1" x1="36.86" y1="61.8" x2="36.86" y2="85.7"/>
    <line class="cls-1" x1="70.36" y1="68.18" x2="70.36" y2="86.43"/>
  </g>
</svg>