<?xml version="1.0" encoding="UTF-8"?>
<svg id="Layer_1" data-name="Layer 1" xmlns="http://www.w3.org/2000/svg" viewBox="0 0 96.43 96.43">
  <defs>
    <style>
      .cls-1 {
        stroke-width: 2.52px;
      }

      .cls-1, .cls-2, .cls-3, .cls-4 {
        fill: #fff;
        stroke-miterlimit: 10;
      }

      .cls-1, .cls-3, .cls-4 {
        stroke: #00a99d;
      }

      .cls-2 {
        stroke: gray;
        stroke-width: .25px;
      }

      .cls-3 {
        stroke-width: 2.3px;
      }

      .cls-4 {
        stroke-width: 2.28px;
      }
    </style>
  </defs>
  <rect class="cls-2" x="-.43" y=".43" width="96" height="96"/>
  <g>
    <path class="cls-4" d="m31.64,40.38s6.07,3.85,9.11,12.96c1.92,5.76,3.04,33.4,3.04,33.4l11.72,1.7s.36-27.88,3.4-33.95c1.92-3.84,6.14-13.29,12.71-16.32,5.06-2.34-3.53,0-3.53,0l-2.25-3.09s-12.93,15.23-12.93,18.27,0-21.25,0-21.25l-1.53-2.08-4.54,2.08s0,34.65,0,30.36c0-3.04-3.04-18.22-6.72-24.29"/>
    <path class="cls-3" d="m88.26,31.51c-.84-3.28-4.18-5.26-7.46-4.42-.14.04-.26.1-.39.14-.02-.38-.08-.77-.17-1.16-.84-3.28-4.18-5.26-7.46-4.42-2.51.64-4.25,2.75-4.56,5.17-1.48-1.57-3.72-2.32-5.96-1.75-3.28.84-5.26,4.18-4.42,7.46.63,2.48,2.69,4.21,5.07,4.55,0,.02,0,.04,0,.06.84,3.28,4.18,5.26,7.46,4.42.67-.17,1.26-.47,1.81-.82,1.23,2.59,4.16,4.04,7.05,3.3,2.48-.63,4.21-2.69,4.55-5.07.02,0,.04,0,.06,0,3.28-.84,5.26-4.18,4.42-7.46Z"/>
    <path class="cls-1" d="m67.34,16.99c-.63-1.09-1.52-1.91-2.54-2.48.19-1.42-.04-2.9-.82-4.24-1.86-3.21-5.96-4.31-9.18-2.46-.65.38-1.19.86-1.66,1.4-2.07-2.37-5.59-3.03-8.41-1.4-1.09.63-1.91,1.52-2.48,2.54-1.42-.19-2.9.04-4.24.82-2.42,1.4-3.64,4.08-3.3,6.69-.02.01-.04.02-.06.03-3.21,1.86-4.31,5.96-2.46,9.18,1.4,2.42,4.08,3.64,6.69,3.3.01.02.02.04.03.06,1.86,3.21,5.96,4.31,9.18,2.46.65-.38,1.19-.86,1.66-1.4,2.07,2.37,5.59,3.03,8.41,1.4,2.16-1.25,3.34-3.52,3.33-5.85,1.15,0,2.32-.26,3.39-.87,3.21-1.86,4.31-5.96,2.46-9.18Zm-15.9,4.26c-.65.38-1.19.86-1.66,1.4-.79-.9-1.79-1.53-2.87-1.9.11-.16.2-.32.29-.48,1.42.19,2.9-.04,4.24-.82.65-.38,1.19-.86,1.66-1.4.51.59,1.12,1.05,1.78,1.42-.04.3-.06.6-.06.91-1.15,0-2.32.26-3.39.87Z"/>
    <path class="cls-4" d="m42.61,31.11c-1.68-2.9-5.39-3.9-8.29-2.22-.12.07-.22.17-.34.24-.12-.36-.28-.71-.48-1.06-1.68-2.9-5.39-3.9-8.29-2.22-2.22,1.28-3.31,3.76-2.96,6.15-1.83-1.1-4.17-1.22-6.15-.08-2.9,1.68-3.9,5.39-2.22,8.29,1.26,2.19,3.69,3.29,6.05,2.98,0,.02.01.04.02.05,1.68,2.9,5.39,3.9,8.29,2.22.59-.34,1.08-.78,1.5-1.27,1.87,2.14,5.05,2.74,7.6,1.27,2.19-1.26,3.29-3.69,2.98-6.05.02,0,.04-.01.05-.02,2.9-1.68,3.9-5.39,2.22-8.29Z"/>
  </g>
</svg>