<?xml version="1.0" encoding="UTF-8"?>
<svg id="Layer_1" data-name="Layer 1" xmlns="http://www.w3.org/2000/svg" viewBox="0 0 1920 1284">
  <defs>
    <style>
      .cls-1 {
        fill: #fff1e2;
      }
    </style>
  </defs>
  <path class="cls-1" d="m1743.21,88.37c-6.99,48.06-42.1,84.62-84.38,84.62-18.74,0-36.06-7.18-50.16-19.35-13.64,32.34-39.81,54.23-69.85,54.23-37.89,0-69.61-34.81-77.83-81.51-17.03,19.82-40.31,32.03-65.98,32.03-46.99,0-85.97-40.91-93.27-94.51-175.21-13.91-352.14-29.72-518.81-36.15C480.38,16.07,121.94,77.04-.5,100.04v1106.51c29.23-1.72,59.11-2.82,89.51-3.42,13.4-48.89,57.46-82.19,107.09-77.26,3.56.35,7.07.9,10.52,1.62,19.38-34.86,56.32-56.51,97-52.46,25.92,2.58,48.89,15.14,65.84,33.81,15.58-9.1,33.84-13.49,53.02-11.59,12.44,1.24,24.13,5.02,34.66,10.81,17.68-23.57,44.21-37.33,72.83-34.48,35.17,3.5,63.76,31.12,75.1,67.93,13.09-4.68,27.32-6.58,42.05-5.12,50.42,5.02,89.69,47.82,95.16,99.8,139.37,11.27,278.25,22.25,410.68,27.35,289.04,11.11,628.95-43.72,766.54-68.81V85.49c-56.69,2.95-115.66,3.71-176.29,2.88Z"/>
</svg>