<?xml version="1.0" encoding="UTF-8"?>
<svg id="Layer_1" data-name="Layer 1" xmlns="http://www.w3.org/2000/svg" viewBox="0 0 1920 804">
  <defs>
    <style>
      .cls-1 {
        fill: none;
        opacity: .63;
      }

      .cls-2 {
        fill: #f6ebe2;
      }
    </style>
  </defs>
  <g class="cls-1">
    <path class="cls-2" d="m1614.52,73.08c-13.95,27.23-43.53,41.97-73.7,34.09-23.2-6.06-41.22-24.06-49.55-46.42-15.67,16.09-38.52,23.41-61.72,17.35-13.66-3.57-25.52-11.28-34.67-21.58-15.69,17.25-39.3,25.29-63.29,19.03-18.04-4.71-32.94-16.65-42.6-32.23l-436.36-30.12c-95.3-6.58-190.92-2.08-285.47,13.34-101.36,16.53-193.35,29.42-269.66,29.42C215.56,55.96,103.96,36.13,0,12.48v758.02c85.06-3.21,141.25-14.79,180.78-28.76-.74-4.49-.99-9.14-.69-13.88,1.78-28.22,22.36-50,47.75-52.49,8.13-22.88,29.55-38.19,53.61-36.11,18.51,1.6,34.17,13.11,42.77,29.27,10.54-14.51,27.48-23.2,45.99-21.59,10.9.94,20.8,5.33,28.87,12.07,10.44-15.4,27.9-24.75,47.03-23.1,23.14,2,41.83,19.49,47.83,42.2,10.53-5.34,22.99-7.92,36.16-6.78,27.2,2.35,49.42,19.85,57.01,42.37,4.56-.3,9.24-.27,14.01.15,23.88,2.07,44.51,12.93,56.9,28.03,72.67,8.32,153.08,13.72,241.17,13.72,197.32,0,367.52-102.97,535.32-95.94,278.65,11.68,439.33,81.23,485.5,104.3V86.87l-275.56-19.02c-9.22,4.1-19.41,6-29.92,5.23Z"/>
  </g>
</svg>