<?xml version="1.0" encoding="UTF-8"?>
<svg id="Layer_1" data-name="Layer 1" xmlns="http://www.w3.org/2000/svg" viewBox="0 0 1920 700">
  <defs>
    <style>
      .cls-1 {
        fill: #ebf4dd;
      }
    </style>
  </defs>
  <path class="cls-1" d="m1614.52,78.96c-13.95,23.27-43.53,35.87-73.7,29.14-23.2-5.18-41.22-20.57-49.55-39.68-15.67,13.75-38.52,20.01-61.72,14.83-13.66-3.05-25.52-9.64-34.67-18.45-15.69,14.74-39.3,21.62-63.29,16.26-18.04-4.03-32.94-14.23-42.6-27.55l-436.36-25.75c-95.3-5.62-190.92-1.78-285.47,11.4-101.36,14.13-193.35,25.15-269.66,25.15C215.56,64.32,103.96,47.37,0,27.16v647.9c85.06-2.75,141.25-12.64,180.78-24.58-.74-3.84-.99-7.81-.69-11.86,1.78-24.12,22.36-42.74,47.75-44.87,8.13-19.56,29.55-32.64,53.61-30.86,18.51,1.37,34.17,11.21,42.77,25.02,10.54-12.4,27.48-19.83,45.99-18.46,10.9.81,20.8,4.55,28.87,10.31,10.44-13.16,27.9-21.16,47.03-19.74,23.14,1.71,41.83,16.66,47.83,36.07,10.53-4.56,22.99-6.77,36.16-5.79,27.2,2.01,49.42,16.97,57.01,36.21,4.56-.25,9.24-.23,14.01.13,23.88,1.77,44.51,11.05,56.9,23.96,72.67,7.11,153.08,11.72,241.17,11.72,197.32,0,367.52-88.01,535.32-82,278.65,9.98,439.33,69.43,485.5,89.15V90.74l-275.56-16.26c-9.22,3.5-19.41,5.13-29.92,4.47Z"/>
</svg>