<?xml version="1.0" encoding="UTF-8"?>
<svg id="Layer_1" data-name="Layer 1" xmlns="http://www.w3.org/2000/svg" viewBox="0 0 1920 912.75">
  <defs>
    <style>
      .cls-1 {
        fill: #ebf4dd;
      }
    </style>
  </defs>
  <path class="cls-1" d="m1614.52,85.58c-13.95,31.78-43.53,48.98-73.7,39.78-23.2-7.07-41.22-28.08-49.55-54.18-15.67,18.78-38.52,27.33-61.72,20.25-13.66-4.17-25.52-13.17-34.67-25.19-15.69,20.13-39.3,29.52-63.29,22.2-18.04-5.5-32.94-19.43-42.6-37.61L852.63,15.68c-95.3-7.68-190.92-2.43-285.47,15.57-101.36,19.29-193.35,34.34-269.66,34.34C215.56,65.59,103.96,42.45,0,14.86v884.64c85.06-3.75,141.25-17.26,180.78-33.57-.74-5.24-.99-10.66-.69-16.2,1.78-32.94,22.36-58.36,47.75-61.26,8.13-26.7,29.55-44.57,53.61-42.14,18.51,1.87,34.17,15.3,42.77,34.17,10.54-16.93,27.48-27.07,45.99-25.2,10.9,1.1,20.8,6.22,28.87,14.08,10.44-17.97,27.9-28.89,47.03-26.95,23.14,2.34,41.83,22.75,47.83,49.25,10.53-6.23,22.99-9.24,36.16-7.91,27.2,2.75,49.42,23.17,57.01,49.44,4.56-.35,9.24-.31,14.01.17,23.88,2.41,44.51,15.09,56.9,32.71,72.67,9.71,153.08,16.01,241.17,16.01,197.32,0,367.52-120.17,535.32-111.96,278.65,13.63,439.33,94.8,485.5,121.72V101.67l-275.56-22.2c-9.22,4.78-19.41,7-29.92,6.1Z"/>
</svg>