<?xml version="1.0" encoding="UTF-8"?>
<svg id="Layer_1" data-name="Layer 1" xmlns="http://www.w3.org/2000/svg" viewBox="0 0 1920 1448">
  <defs>
    <style>
      .cls-1 {
        fill: none;
        opacity: .63;
      }

      .cls-2 {
        fill: #f6ebe2;
      }

      .cls-3 {
        fill: #fff;
      }
    </style>
  </defs>
  <g class="cls-1">
    <path class="cls-2" d="m1614.52,114.81c-13.95,51.22-43.53,78.96-73.7,64.13-23.2-11.4-41.22-45.27-49.55-87.33-15.67,30.27-38.52,44.05-61.72,32.64-13.66-6.71-25.52-21.23-34.67-40.6-15.69,32.44-39.3,47.58-63.29,35.79-18.04-8.87-32.94-31.31-42.6-60.63L924.73,11.51c-46.29-6.01-92.84-8.2-139.36-6.59-156.23,5.38-127.38,8.12-218.22,22.33-103.52,16.19-247.85,50.17-324.16,50.17C161.06,77.42,103.96,45.3,0,.82v1383.08c85.06-6.05,141.25,15.09,180.78-11.19-.74-8.45-.99-17.19-.69-26.11,1.78-53.1,22.36-94.07,47.75-98.75,8.13-43.04,29.55-71.85,53.61-67.93,18.51,3.01,34.17,24.67,42.77,55.07,10.54-27.29,27.48-43.64,45.99-40.62,10.9,1.77,20.8,10.02,28.87,22.7,10.44-28.97,27.9-46.56,47.03-43.45,23.14,3.77,41.83,36.67,47.83,79.39,10.53-10.04,22.99-14.89,36.16-12.75,27.2,4.43,49.42,37.34,57.01,79.7,4.56-.56,9.24-.5,14.01.28,23.88,3.89,44.51,24.33,56.9,52.73,72.67,15.65,153.08,25.8,241.17,25.8,197.32,0,427.02-98.79,594.82-85.56,278.65,21.97,379.83,57.9,426,101.29V140.76l-275.56-35.78c-9.22,7.71-19.41,11.28-29.92,9.84Z"/>
  </g>
  <path class="cls-3" d="m1722.99-85.53c-50.83,0-92.97,37.18-100.72,85.82-19.13-15.81-43.68-25.31-70.44-25.31-43.34,0-80.85,24.92-99.01,61.2-13.31-6-28.08-9.34-43.63-9.34-13.13,0-25.7,2.39-37.31,6.74-7.32-49.68-54.2-87.99-110.95-87.99-61.83,0-111.95,45.48-111.95,101.57s50.12,101.57,111.95,101.57c14.94,0,29.2-2.66,42.23-7.48,4.13,54.95,50.02,98.25,106.02,98.25,40.07,0,74.96-22.17,93.09-54.92,14.91,7.48,31.73,11.69,49.55,11.69,56.9,0,103.76-42.95,109.95-98.2,17.05,12.81,38.24,20.4,61.21,20.4,56.34,0,102.01-45.67,102.01-102.01s-45.67-102.01-102.01-102.01Z"/>
  <path class="cls-3" d="m823.36,1247.42c-11.69,0-22.94,1.57-33.44,4.46-17.6-36.73-52.39-61.75-92.45-61.75-26.09,0-49.94,10.61-68.27,28.15-20.16-24.93-51-40.88-85.56-40.88-21.89,0-42.29,6.4-59.43,17.42-11.61-32.94-40.94-56.32-75.31-56.32-30.93,0-57.79,18.95-71.31,46.75-22.5-17-49.69-26.95-78.98-26.95-77.54,0-140.39,69.66-140.39,155.6s62.86,155.6,140.39,155.6,140.39-69.66,140.39-155.6c0-.22,0-.44,0-.66,3.25.43,6.55.66,9.91.66,9.42,0,18.46-1.76,26.87-4.99,10.01,50.43,54.5,88.45,107.87,88.45,25.81,0,49.55-8.9,68.31-23.79,18.96,29.79,50.19,49.25,85.52,49.25,22.37,0,43.09-7.8,60.1-21.08,18.03,11.86,40.9,18.96,65.79,18.96,58.2,0,105.38-38.79,105.38-86.64s-47.18-86.64-105.38-86.64Z"/>
</svg>