<?xml version="1.0" encoding="UTF-8"?>
<svg id="Layer_1" data-name="Layer 1" xmlns="http://www.w3.org/2000/svg" viewBox="0 0 1920 1311">
  <defs>
    <style>
      .cls-1 {
        fill: none;
        opacity: .63;
      }

      .cls-2 {
        fill: #f6ebe2;
      }
    </style>
  </defs>
  <g class="cls-1">
    <path class="cls-2" d="m1614.52,158.13c-13.95,40.58-43.53,62.55-73.7,50.8-23.2-9.03-41.22-35.86-49.55-69.19-15.67,23.98-38.52,34.89-61.72,25.86-13.66-5.32-25.52-16.82-34.67-32.17-15.69,25.7-39.3,37.7-63.29,28.36-18.04-7.02-32.94-24.81-42.6-48.03l-364.26-37.47c-46.29-4.76-92.84-6.49-139.36-5.22-156.23,4.26-127.38,6.43-218.22,17.69-103.52,12.83-247.85,39.74-324.16,39.74C161.06,128.5,103.96,103.06,0,67.82v1095.68c85.06-4.79,141.25,11.95,180.78-8.86-.74-6.69-.99-13.62-.69-20.68,1.78-42.06,22.36-74.52,47.75-78.23,8.13-34.1,29.55-56.92,53.61-53.82,18.51,2.39,34.17,19.54,42.77,43.63,10.54-21.62,27.48-34.57,45.99-32.18,10.9,1.41,20.8,7.94,28.87,17.98,10.44-22.95,27.9-36.89,47.03-34.42,23.14,2.98,41.83,29.05,47.83,62.89,10.53-7.96,22.99-11.8,36.16-10.1,27.2,3.51,49.42,29.58,57.01,63.14,4.56-.44,9.24-.4,14.01.22,23.88,3.08,44.51,19.27,56.9,41.77,72.67,12.4,153.08,20.44,241.17,20.44,197.32,0,427.02-78.26,594.82-67.78,278.65,17.4,379.83,45.87,426,80.25V178.68l-275.56-28.35c-9.22,6.11-19.41,8.94-29.92,7.79Z"/>
  </g>
</svg>