<?xml version="1.0" encoding="UTF-8"?>
<svg id="Layer_1" data-name="Layer 1" xmlns="http://www.w3.org/2000/svg" xmlns:xlink="http://www.w3.org/1999/xlink" viewBox="0 0 1920 834">
  <defs>
    <style>
      .cls-1 {
        opacity: .36;
      }

      .cls-1, .cls-2, .cls-3 {
        fill: none;
      }

      .cls-2 {
        opacity: .63;
      }

      .cls-4 {
        fill: #f6ebe2;
      }

      .cls-5 {
        fill: #c8e9f2;
      }

      .cls-3 {
        filter: url(#drop-shadow-1);
      }
    </style>
    <filter id="drop-shadow-1" filterUnits="userSpaceOnUse">
      <feOffset dx="7" dy="7"/>
      <feGaussianBlur result="blur" stdDeviation="0"/>
      <feFlood flood-color="#346666" flood-opacity=".1"/>
      <feComposite in2="blur" operator="in"/>
      <feComposite in="SourceGraphic"/>
    </filter>
  </defs>
  <g class="cls-2">
    <path class="cls-4" d="m1614.52,81.58c-13.95,31.78-43.53,48.98-73.7,39.78-23.2-7.07-41.22-28.08-49.55-54.18-15.67,18.78-38.52,27.33-61.72,20.25-13.66-4.17-25.52-13.17-34.67-25.19-15.69,20.13-39.3,29.52-63.29,22.2-18.04-5.5-32.94-19.43-42.6-37.61L852.63,11.68c-95.3-7.68-190.92-2.43-285.47,15.57-101.36,19.29-193.35,34.34-269.66,34.34C215.56,61.59,103.96,38.45,0,10.86v854.64c95,2,141.25,12.74,180.78-3.57-.74-5.24-.99-10.66-.69-16.2,1.78-32.94,22.36-58.36,47.75-61.26,8.13-26.7,29.55-44.57,53.61-42.14,18.51,1.87,34.17,15.3,42.77,34.17,10.54-16.93,27.48-27.07,45.99-25.2,10.9,1.1,20.8,6.22,28.87,14.08,10.44-17.97,27.9-28.89,47.03-26.95,23.14,2.34,41.83,22.75,47.83,49.25,10.53-6.23,22.99-9.24,36.16-7.91,27.2,2.75,49.42,23.17,57.01,49.44,4.56-.35,9.24-.31,14.01.17,23.88,2.41,44.51,15.09,56.9,32.71,72.67,9.71,148.38,16.93,241.17,16.01,60.82-.6,422.01-47.8,589.82-55.6,172-8,367,42,431,65.36V97.67l-275.56-22.2c-9.22,4.78-19.41,7-29.92,6.1Z"/>
  </g>
  <g class="cls-3">
    <g class="cls-1">
      <path class="cls-5" d="m323.16,520.56c-8.62,0-16.54-1.48-23.74-4.45-7.21-2.97-13.39-7.42-18.55-13.36-5.16-5.94-9.15-13.32-11.98-22.15-2.83-8.83-4.24-19.19-4.24-31.06s1.45-21.84,4.35-30.74c2.9-8.9,6.96-16.32,12.19-22.26,5.23-5.94,11.41-10.42,18.55-13.46,7.14-3.04,14.95-4.56,23.43-4.56s16.29,1.52,23.43,4.56c7.13,3.04,13.32,7.53,18.55,13.46,5.23,5.94,9.33,13.36,12.3,22.26,2.97,8.9,4.45,19.15,4.45,30.74s-1.45,22.23-4.35,31.06c-2.9,8.83-6.96,16.22-12.19,22.15-5.23,5.94-11.42,10.39-18.55,13.36-7.14,2.97-15.02,4.45-23.64,4.45Zm23.74-71.02c0-14.13-2.16-24.87-6.47-32.22-4.31-7.35-10.14-11.02-17.49-11.02s-12.9,3.68-17.07,11.02c-4.17,7.35-6.25,18.09-6.25,32.22s1.98,25.41,5.94,32.54c3.96,7.14,9.75,10.71,17.38,10.71s13.53-3.57,17.7-10.71c4.17-7.13,6.25-17.98,6.25-32.54Z"/>
      <path class="cls-5" d="m398.85,422.82c-2.26-1.27-4.42-3.14-6.47-5.62-2.05-2.47-3.07-5.9-3.07-10.28,0-7.91,5.01-13.71,15.05-17.38l25.86-9.33h7.63c5.94,0,10.56,1.7,13.89,5.09,3.32,3.39,4.98,8.06,4.98,13.99v117.66c-1.56.42-3.71.85-6.47,1.27s-5.76.63-9.01.63c-6.78,0-11.7-1.13-14.73-3.39-3.04-2.26-4.56-6.57-4.56-12.93v-87.56l-23.11,7.84Z"/>
    </g>
    <g class="cls-1">
      <path class="cls-5" d="m696.16,520.56c-8.62,0-16.54-1.48-23.74-4.45-7.21-2.97-13.39-7.42-18.55-13.36-5.16-5.94-9.15-13.32-11.98-22.15-2.83-8.83-4.24-19.19-4.24-31.06s1.45-21.84,4.35-30.74c2.9-8.9,6.96-16.32,12.19-22.26,5.23-5.94,11.41-10.42,18.55-13.46,7.14-3.04,14.95-4.56,23.43-4.56s16.29,1.52,23.43,4.56c7.13,3.04,13.32,7.53,18.55,13.46,5.23,5.94,9.33,13.36,12.3,22.26,2.97,8.9,4.45,19.15,4.45,30.74s-1.45,22.23-4.35,31.06c-2.9,8.83-6.96,16.22-12.19,22.15-5.23,5.94-11.42,10.39-18.55,13.36-7.14,2.97-15.02,4.45-23.64,4.45Zm23.74-71.02c0-14.13-2.16-24.87-6.47-32.22-4.31-7.35-10.14-11.02-17.49-11.02s-12.9,3.68-17.07,11.02c-4.17,7.35-6.25,18.09-6.25,32.22s1.98,25.41,5.94,32.54c3.96,7.14,9.75,10.71,17.38,10.71s13.53-3.57,17.7-10.71c4.17-7.13,6.25-17.98,6.25-32.54Z"/>
      <path class="cls-5" d="m771.85,400.56c0-7.07,3.67-12.51,11.02-16.32,7.35-3.82,16.96-5.72,28.83-5.72,8.62,0,16.18,1.03,22.68,3.07,6.5,2.05,11.94,4.91,16.32,8.59,4.38,3.68,7.67,8.02,9.86,13.04,2.19,5.02,3.29,10.49,3.29,16.43,0,8.06-2.16,15.72-6.47,23-4.31,7.28-11.13,14.73-20.46,22.37l-30.32,25.02h55.33c.85,1.56,1.66,3.5,2.44,5.83.78,2.33,1.17,4.84,1.17,7.53,0,4.95-1.1,8.48-3.29,10.6-2.19,2.12-5.12,3.18-8.8,3.18h-77.38c-2.97-1.98-5.3-4.59-7-7.84-1.7-3.25-2.54-7-2.54-11.24,0-4.52.95-8.41,2.86-11.66,1.91-3.25,3.99-5.86,6.25-7.84l32.44-28.2c7.77-6.92,13.14-12.51,16.11-16.75,2.97-4.24,4.45-8.27,4.45-12.08,0-4.52-1.77-8.16-5.3-10.92-3.54-2.76-8.55-4.13-15.05-4.13-6.08,0-11.48.95-16.22,2.86-4.74,1.91-8.66,3.92-11.77,6.04-2.41-1.55-4.42-3.57-6.04-6.04-1.63-2.47-2.44-5.41-2.44-8.8Z"/>
    </g>
    <g class="cls-1">
      <path class="cls-5" d="m1083.16,520.56c-8.62,0-16.54-1.48-23.74-4.45-7.21-2.97-13.39-7.42-18.55-13.36-5.16-5.94-9.15-13.32-11.98-22.15-2.83-8.83-4.24-19.19-4.24-31.06s1.45-21.84,4.35-30.74c2.9-8.9,6.96-16.32,12.19-22.26,5.23-5.94,11.41-10.42,18.55-13.46,7.14-3.04,14.95-4.56,23.43-4.56s16.29,1.52,23.43,4.56c7.13,3.04,13.32,7.53,18.55,13.46,5.23,5.94,9.33,13.36,12.3,22.26,2.97,8.9,4.45,19.15,4.45,30.74s-1.45,22.23-4.35,31.06c-2.9,8.83-6.96,16.22-12.19,22.15-5.23,5.94-11.42,10.39-18.55,13.36-7.14,2.97-15.02,4.45-23.64,4.45Zm23.74-71.02c0-14.13-2.16-24.87-6.47-32.22-4.31-7.35-10.14-11.02-17.49-11.02s-12.9,3.68-17.07,11.02c-4.17,7.35-6.25,18.09-6.25,32.22s1.98,25.41,5.94,32.54c3.96,7.14,9.75,10.71,17.38,10.71s13.53-3.57,17.7-10.71c4.17-7.13,6.25-17.98,6.25-32.54Z"/>
      <path class="cls-5" d="m1198.49,378.52c16.54,0,29.26,3.46,38.16,10.39,8.9,6.93,13.36,16.4,13.36,28.41,0,3.68-.57,7.07-1.7,10.18-1.13,3.11-2.58,5.87-4.35,8.27-1.77,2.41-3.82,4.53-6.15,6.36-2.33,1.84-4.77,3.32-7.31,4.45,2.97,1.13,5.83,2.62,8.59,4.45,2.76,1.84,5.19,4.06,7.31,6.68,2.12,2.62,3.82,5.76,5.09,9.43,1.27,3.68,1.91,7.84,1.91,12.51,0,6.36-1.34,12.08-4.03,17.17-2.69,5.09-6.43,9.4-11.24,12.93-4.81,3.53-10.57,6.22-17.28,8.06-6.71,1.83-14.03,2.76-21.94,2.76-14.98,0-26.39-2.09-34.24-6.25-7.84-4.17-11.77-9.43-11.77-15.79,0-3.67.92-6.85,2.76-9.54,1.84-2.68,4.03-4.8,6.57-6.36,3.11,2.12,7.21,4.35,12.3,6.68s11.73,3.5,19.93,3.5c7.77,0,13.67-1.45,17.7-4.35,4.03-2.89,6.04-6.82,6.04-11.77s-1.63-8.51-4.88-11.13c-3.25-2.61-8.76-3.92-16.54-3.92h-20.56c-.99-1.41-1.8-3.25-2.44-5.51-.64-2.26-.95-4.88-.95-7.84,0-3.25.32-6.01.95-8.27.64-2.26,1.45-4.1,2.44-5.51h20.35c6.36,0,10.99-1.2,13.89-3.6,2.89-2.4,4.35-5.79,4.35-10.18s-1.84-7.88-5.51-10.49c-3.68-2.61-9.12-3.92-16.32-3.92-6.36,0-11.87.78-16.54,2.33-4.66,1.56-8.55,3.39-11.66,5.51-2.4-1.7-4.38-3.74-5.94-6.15-1.56-2.4-2.33-5.3-2.33-8.69,0-6.92,3.85-12.12,11.55-15.58,7.7-3.46,17.84-5.19,30.42-5.19Z"/>
    </g>
    <g class="cls-1">
      <path class="cls-5" d="m1465.16,520.56c-8.62,0-16.54-1.48-23.74-4.45-7.21-2.97-13.39-7.42-18.55-13.36-5.16-5.94-9.15-13.32-11.98-22.15-2.83-8.83-4.24-19.19-4.24-31.06s1.45-21.84,4.35-30.74c2.9-8.9,6.96-16.32,12.19-22.26,5.23-5.94,11.41-10.42,18.55-13.46,7.14-3.04,14.95-4.56,23.43-4.56s16.29,1.52,23.43,4.56c7.13,3.04,13.32,7.53,18.55,13.46,5.23,5.94,9.33,13.36,12.3,22.26,2.97,8.9,4.45,19.15,4.45,30.74s-1.45,22.23-4.35,31.06c-2.9,8.83-6.96,16.22-12.19,22.15-5.23,5.94-11.42,10.39-18.55,13.36-7.14,2.97-15.02,4.45-23.64,4.45Zm23.74-71.02c0-14.13-2.16-24.87-6.47-32.22-4.31-7.35-10.14-11.02-17.49-11.02s-12.9,3.68-17.07,11.02c-4.17,7.35-6.25,18.09-6.25,32.22s1.98,25.41,5.94,32.54c3.96,7.14,9.75,10.71,17.38,10.71s13.53-3.57,17.7-10.71c4.17-7.13,6.25-17.98,6.25-32.54Z"/>
      <path class="cls-5" d="m1596.17,383.18c2.54-.85,5.55-1.55,9.01-2.12,3.46-.56,6.54-.85,9.22-.85,3.11,0,6.11.29,9.01.85,2.9.57,5.48,1.59,7.74,3.07,2.26,1.48,4.1,3.46,5.51,5.94,1.41,2.47,2.12,5.62,2.12,9.43v62.12h18.23c.85,1.42,1.7,3.36,2.54,5.83.85,2.47,1.27,5.12,1.27,7.95,0,4.95-1.13,8.55-3.39,10.81s-5.23,3.39-8.9,3.39h-9.75v27.35c-1.41.28-3.6.67-6.57,1.17-2.97.49-5.87.74-8.69.74-5.94,0-10.53-.81-13.78-2.44-3.25-1.62-4.88-5.62-4.88-11.98v-14.84h-54.48c-3.25-1.55-5.97-3.96-8.16-7.21-2.19-3.25-3.29-7.21-3.29-11.87,0-2.54.32-5.33.95-8.37.64-3.04,1.73-5.69,3.29-7.95l53-71.02Zm10.39,32.22h-.85l-30.74,46.22h31.59v-46.22Z"/>
    </g>
  </g>
</svg>